<svg width="1437" height="974" viewBox="0 0 1437 974" fill="none" xmlns="http://www.w3.org/2000/svg">
<g opacity="0.3" clip-path="url(#clip0)">
<path d="M-124.408 404.575L-58.9046 390.125C6.71553 376.057 137.547 346.582 268.671 318.064C399.794 289.546 530.625 260.072 653.955 206.016C777.109 151.387 892.762 72.1777 1023.68 42.9901C1154.72 14.1851 1301.31 36.3587 1374.61 47.4455L1447.91 58.5323" stroke="#120E14"/>
<path d="M-253.823 330.768L-183.303 317.232C-112.614 304.247 28.174 276.347 169.383 249.826C310.592 223.305 451.38 195.405 581.355 132.078C711.079 67.9243 829.99 -31.6569 970.904 -59.143C1111.99 -86.0778 1275.49 -39.539 1357.25 -16.2695L1439 6.99986" stroke="#120E14"/>
<path d="M-293.408 248.575L-230.965 235.059C-168.406 221.925 -43.6961 194.319 81.3057 167.669C206.308 141.019 331.017 113.413 448.225 61.2264C565.258 8.46565 674.789 -68.8757 799.586 -96.195C924.501 -123.132 1064.97 -99.0898 1135.21 -87.0688L1205.45 -75.0479" stroke="#120E14"/>
<path d="M-1.36139 957.67L61.9626 949.195C125.372 941.11 251.892 923.573 378.625 907.013C505.359 890.453 631.878 872.916 752.887 830.277C873.767 787.052 989.136 718.725 1115.72 701.481C1242.39 684.628 1380.49 719.835 1449.54 737.438L1518.59 755.042" stroke="#120E14"/>
<path d="M214.639 1057.98L277.963 1049.5C341.372 1041.42 467.892 1023.88 594.625 1007.32C721.359 990.76 847.878 973.223 968.887 930.584C1089.77 887.359 1205.14 819.032 1331.72 801.788C1458.39 784.935 1596.49 820.142 1665.54 837.746L1734.59 855.349" stroke="#120E14"/>
<path d="M-84.8151 584.361L-19.3452 572.306C46.2282 560.637 177.013 535.946 308.056 512.221C439.099 488.496 569.884 463.805 694.017 414.29C817.994 364.195 1065.14 365.901 1196 341.5C1326.97 317.485 1341.91 268.33 1414.29 282.064L1486.67 295.799" stroke="#120E14"/>
<path d="M-128 474.361L-62.5301 462.306C3.04331 450.637 133.828 425.946 264.871 402.221C395.914 378.496 526.699 353.805 650.832 304.29C774.809 254.195 1021.95 255.901 1152.82 231.5C1283.78 207.485 1298.72 158.33 1371.1 172.064L1443.48 185.799" stroke="#120E14"/>
<path d="M-48 924.361L17.4699 912.306C83.0433 900.637 213.828 875.946 344.871 852.221C475.914 828.496 606.699 803.805 730.832 754.29C854.809 704.195 1101.95 705.901 1232.82 681.5C1363.78 657.485 1378.72 608.33 1451.1 622.064L1523.48 635.799" stroke="#120E14"/>
<path d="M-46 684C2.53007 628.694 199.457 701.031 330.5 677.306C461.543 653.581 590.699 568.805 714.832 519.29C838.809 469.195 1085.95 470.901 1216.81 446.5C1347.78 422.485 1362.72 373.33 1435.1 387.064L1507.48 400.799" stroke="#120E14"/>
<path d="M-56.9539 735.046C4.01154 693.85 176.167 813.746 308.944 824.017C441.721 834.288 569.644 751.075 702.274 734.646C834.901 717.618 1076.99 887.173 1209.76 896.744C1342.53 906.715 1384.51 791.652 1451.04 823.287L1517.58 854.922" stroke="#120E14"/>
</g>
<defs>
<clipPath id="clip0">
<rect width="1437" height="974" fill="white" transform="matrix(1 0 0 -1 0 974)"/>
</clipPath>
</defs>
</svg>
