<?xml version="1.0" encoding="UTF-8"?>
<svg width="1024px" height="1024px" viewBox="0 0 1024 1024" version="1.1" xmlns="http://www.w3.org/2000/svg" xmlns:xlink="http://www.w3.org/1999/xlink">
    <!-- Generator: Sketch 52.6 (67491) - http://www.bohemiancoding.com/sketch -->
    <title>Black Logo Mark</title>
    <desc>Created with Sketch.</desc>
    <defs>
        <linearGradient x1="49.7351021%" y1="0%" x2="49.7351021%" y2="98.3265112%" id="linearGradient-1">
            <stop stop-color="#393939" offset="0%"></stop>
            <stop stop-color="#000000" offset="100%"></stop>
        </linearGradient>
    </defs>
    <g id="Black-Logo-Mark" stroke="none" stroke-width="1" fill="none" fill-rule="evenodd">
        <rect id="background" fill-rule="nonzero" x="0" y="0" width="1024" height="1024"></rect>
        <path d="M407.093623,425.674878 C407.093623,413.02482 407.093623,388.315109 407.093623,351.545746 C363.185478,380.286509 335.168856,421.603972 323.043758,475.498133 L456.8,475.498133 L456.643758,748.325848 C405.561404,734.029098 365.346818,710.429205 336,677.526171 C306.653182,644.623137 287.363094,610.211493 278.129737,574.291241 C292.0015,574.291241 309.291406,574.291241 329.999456,574.291241 C347.549412,619.647678 373.282927,652.733886 407.2,673.549864 L407.2,524.699531 L270.4,524.699531 C268.533357,461.879266 285.648967,408.124612 321.746829,363.435571 C357.844692,318.746529 402.862416,289.963135 456.8,277.085389 L456.643758,425.674878 L407.093623,425.674878 Z M567.2,827.257556 L567.2,778.405242 C690.955076,752.899807 784,643.343284 784,512.058959 C784,370.223766 675.398721,253.749087 536.8,241.224278 L536.8,832 L487.2,832 L487.2,241.224278 C348.601279,253.749087 240,370.223766 240,512.058959 C240,643.343284 333.044924,752.899807 456.8,778.405242 L456.8,827.257556 C306.374731,801.106594 192,669.937141 192,512.058959 C192,343.703994 322.058193,205.72015 487.2,193.064509 C498.457866,192.354836 506.724533,192 512,192 C517.746755,192 526.013422,192.354836 536.8,193.064509 C701.941807,205.72015 832,343.703994 832,512.058959 C832,669.937141 717.625269,801.106594 567.2,827.257556 Z M567.094634,749.396869 L567.094634,278.619653 C660.632834,304.128303 720.637814,363.675143 747.109575,457.260174 C758.335976,502.968288 761.494634,578.220687 710.262651,652.707769 C710.262651,582.169614 710.262651,530.489557 710.262651,497.667597 C702.588037,465.350322 692.988037,439.701329 681.462651,420.720618 C681.462651,446.329181 681.462651,534.899912 681.462651,686.432811 C667.202789,700.303948 652.941444,711.549743 638.678618,720.170196 C638.678618,711.19603 638.678618,594.355466 638.678618,369.648504 C629.7531,361.551241 620.1531,354.231045 609.878618,347.687916 C609.878618,363.307693 609.878618,598.602258 609.878618,735.410299 C592.022629,742.570842 577.7613,747.233033 567.094634,749.396869 Z" fill="url(#linearGradient-1)" fill-rule="nonzero"></path>
    </g>
</svg>