<svg width="1437" height="974" viewBox="0 0 1437 974" fill="none" xmlns="http://www.w3.org/2000/svg">
<g opacity="0.3" clip-path="url(#clip0)">
<path d="M-124.408 569.425L-58.9046 583.875C6.71553 597.943 137.547 627.418 268.671 655.936C399.794 684.454 530.625 713.928 653.955 767.984C777.109 822.613 892.762 901.822 1023.68 931.01C1154.72 959.815 1301.31 937.641 1374.61 926.555L1447.91 915.468" stroke="#E8E8E8"/>
<path d="M-253.823 643.232L-183.303 656.768C-112.614 669.753 28.174 697.653 169.383 724.174C310.592 750.695 451.38 778.595 581.355 841.922C711.079 906.076 829.99 1005.66 970.904 1033.14C1111.99 1060.08 1275.49 1013.54 1357.25 990.27L1439 967" stroke="#E8E8E8"/>
<path d="M-293.408 725.425L-230.965 738.941C-168.406 752.075 -43.6961 779.681 81.3057 806.331C206.308 832.981 331.017 860.587 448.225 912.774C565.258 965.534 674.789 1042.88 799.586 1070.2C924.501 1097.13 1064.97 1073.09 1135.21 1061.07L1205.45 1049.05" stroke="#E8E8E8"/>
<path d="M-1.36139 16.3297L61.9626 24.8051C125.372 32.8898 251.892 50.4266 378.625 66.9867C505.359 83.5469 631.878 101.084 752.887 143.723C873.767 186.948 989.136 255.275 1115.72 272.519C1242.39 289.372 1380.49 254.165 1449.54 236.562L1518.59 218.958" stroke="#E8E8E8"/>
<path d="M214.639 -83.9772L277.963 -75.5018C341.372 -67.4171 467.892 -49.8803 594.625 -33.3202C721.359 -16.7601 847.878 0.776694 968.887 43.4158C1089.77 86.6409 1205.14 154.968 1331.72 172.212C1458.39 189.065 1596.49 153.858 1665.54 136.254L1734.59 118.651" stroke="#E8E8E8"/>
<path d="M-84.8151 389.639L-19.3452 401.694C46.2282 413.363 177.013 438.054 308.056 461.779C439.099 485.504 569.884 510.195 694.017 559.71C817.994 609.805 1065.14 608.099 1196 632.5C1326.97 656.515 1341.91 705.67 1414.29 691.936L1486.67 678.201" stroke="#E8E8E8"/>
<path d="M-128 499.639L-62.5301 511.694C3.04331 523.363 133.828 548.054 264.871 571.779C395.914 595.504 526.699 620.195 650.832 669.71C774.809 719.805 1021.95 718.099 1152.82 742.5C1283.78 766.515 1298.72 815.67 1371.1 801.936L1443.48 788.201" stroke="#E8E8E8"/>
<path d="M-48 49.6385L17.4699 61.6941C83.0433 73.3634 213.828 98.0543 344.871 121.779C475.914 145.504 606.699 170.195 730.832 219.71C854.809 269.805 1101.95 268.099 1232.82 292.5C1363.78 316.515 1378.72 365.67 1451.1 351.936L1523.48 338.201" stroke="#E8E8E8"/>
<path d="M-46 290C2.53007 345.306 199.457 272.969 330.5 296.694C461.543 320.419 590.699 405.195 714.832 454.71C838.809 504.805 1085.95 503.099 1216.81 527.5C1347.78 551.515 1362.72 600.67 1435.1 586.936L1507.48 573.201" stroke="#E8E8E8"/>
<path d="M-56.9539 238.954C4.01154 280.151 176.167 160.254 308.944 149.983C441.721 139.712 569.644 222.925 702.274 239.354C834.901 256.382 1076.99 86.8272 1209.76 77.2561C1342.53 67.285 1384.51 182.349 1451.04 150.713L1517.58 119.078" stroke="#E8E8E8"/>
</g>
<defs>
<clipPath id="clip0">
<rect width="1437" height="974" fill="white"/>
</clipPath>
</defs>
</svg>
