<svg width="1440" height="877" viewBox="0 0 1440 877" fill="none" xmlns="http://www.w3.org/2000/svg">
<g id="Waves" opacity="0.3" clip-path="url(#clip0)">
<path id="Vector" d="M-123.408 521.425L-57.9046 535.875C7.71553 549.943 138.547 579.417 269.671 607.936C400.794 636.454 531.625 665.928 654.955 719.983C778.109 774.612 893.762 853.822 1024.68 883.01C1155.72 911.815 1302.31 889.641 1375.61 878.554L1448.91 867.467" stroke="#E8E8E8"/>
<path id="Vector_2" d="M-254.408 600.425L-191.965 613.941C-129.406 627.075 -4.69614 654.681 120.306 681.331C245.308 707.98 370.017 735.587 487.225 787.773C604.258 840.534 713.789 917.876 838.586 945.195C963.501 972.131 1103.97 948.09 1174.21 936.069L1244.45 924.048" stroke="#E8E8E8"/>
<path id="Vector_3" d="M-292.408 677.425L-229.965 690.941C-167.406 704.075 -42.6961 731.681 82.3057 758.331C207.308 784.98 332.017 812.587 449.225 864.773C566.258 917.534 675.789 994.876 800.586 1022.19C925.501 1049.13 1065.97 1025.09 1136.21 1013.07L1206.45 1001.05" stroke="#E8E8E8"/>
<path id="Vector_4" d="M96.5692 -41.2026L159.893 -32.7272C223.303 -24.6425 349.822 -7.10561 476.556 9.45451C603.29 26.0146 729.809 43.5515 850.817 86.1906C971.697 129.416 1087.07 197.743 1213.65 214.987C1340.32 231.84 1478.42 196.633 1547.47 179.029L1616.52 161.426" stroke="#E8E8E8"/>
<path id="Vector_5" d="M215.639 -131.977L278.963 -123.502C342.372 -115.417 468.892 -97.8804 595.625 -81.3203C722.359 -64.7602 848.878 -47.2234 969.887 -4.58434C1090.77 38.6408 1206.14 106.968 1332.72 124.212C1459.39 141.065 1597.49 105.858 1666.54 88.2543L1735.59 70.6508" stroke="#E8E8E8"/>
<path id="Vector_6" d="M-83.8151 341.638L-18.3452 353.694C47.2282 365.363 178.013 390.054 309.056 413.779C440.099 437.504 570.884 462.195 695.017 511.71C818.994 561.804 1066.14 560.099 1197 584.5C1327.97 608.515 1342.91 657.67 1415.29 643.935L1487.67 630.201" stroke="#E8E8E8"/>
<path id="Vector_7" d="M-127 451.638L-61.5301 463.694C4.04331 475.363 134.828 500.054 265.871 523.779C396.914 547.504 527.699 572.195 651.832 621.71C775.809 671.805 1022.95 670.099 1153.82 694.5C1284.78 718.515 1299.72 767.67 1372.1 753.936L1444.48 740.201" stroke="#E8E8E8"/>
<path id="Vector_8" d="M-47 1.6384L18.4699 13.694C84.0433 25.3633 214.828 50.0541 345.871 73.779C476.914 97.504 607.699 122.195 731.832 171.71C855.809 221.805 1102.95 220.099 1233.82 244.5C1364.78 268.515 1379.72 317.67 1452.1 303.936L1524.48 290.201" stroke="#E8E8E8"/>
<path id="Vector_9" d="M-45 242C3.53007 297.306 200.457 224.969 331.5 248.694C462.543 272.419 591.699 357.195 715.832 406.71C839.809 456.805 1086.95 455.099 1217.81 479.5C1348.78 503.515 1363.72 552.67 1436.1 538.936L1508.48 525.201" stroke="#E8E8E8"/>
<path id="Vector_10" d="M-29.8249 131.141C18.7052 186.447 215.632 114.11 346.675 137.835C477.718 161.56 580.367 274.485 704.5 324C828.478 374.095 1105.64 271.45 1236.5 295.851C1367.47 319.865 1378.9 441.811 1451.28 428.076L1523.66 414.342" stroke="#E8E8E8"/>
</g>
<defs>
<clipPath id="clip0">
<rect width="1440" height="877" fill="white" transform="translate(0 -0.00012207)"/>
</clipPath>
</defs>
</svg>
